<?xml version="1.0" encoding="utf-8"?>
<!-- Generator: Adobe Illustrator 22.1.0, SVG Export Plug-In . SVG Version: 6.00 Build 0)  -->
<svg version="1.1" id="Layer_1" xmlns="http://www.w3.org/2000/svg" xmlns:xlink="http://www.w3.org/1999/xlink" x="0px" y="0px"
	 viewBox="0 0 1366 768" style="enable-background:new 0 0 1366 768;" xml:space="preserve">
<style type="text/css">
	.st0{fill:none;}
	.st1{font-family:'MyriadPro-Regular';}
	.st2{font-size:18.127px;}
	.st3{letter-spacing:49.8;}
	.st4{font-size:118.1096px;}
</style>
<g>
	<path d="M319.2,223.9c3.5-5,7.8-8.8,12.9-11.5c4.2-2.2,6.7,3.6,6.2,8.8c2.9-3.5,4.8-8.8,4.8-14.6v-23.4c0-10.8-6.1-19.4-13.5-18.9
		c-26.5,2.3-49.4-10.1-76.4-44.3C223.5,82.6,198.1,53,162.7,53c-39.5,0-76.4,40.4-76.4,129.9c0,34.1,5.7,70.3,14.7,96.3
		c3,8.7,10.1,12.6,16.3,9.1l8.4-4.8c6.9-4,10.2-15.6,7.1-25.5c-5.7-18.1-9.1-40.4-9.1-61.1c0.5-49,18.2-73.9,44.7-73.9
		c23.4,0,43.7,19.4,71.2,54.4c22.7,28.3,45.1,43.4,66.4,47.7C310.5,224.3,315,224,319.2,223.9z"/>
	<path d="M338.7,340.9c-30.6,2.2-60.4,11.9-89.4,25.9c-2.3,1.1-4,0.1-5.1-1.8c-1.5,1.8-3.1,3.7-4.6,5.6
		c-27.5,35-47.8,54.4-71.2,54.4c-26.5,0-44.2-24.9-44.7-73.9c0-20.6,3.4-43,9.1-61.1c3.1-9.9-0.1-21.5-7.1-25.5l-8.4-4.8
		c-6.2-3.6-13.3,0.4-16.3,9.1c-9,26-14.7,62.2-14.7,96.3c0,89.4,36.9,129.9,76.4,129.9c35.3,0,60.8-29.6,90.4-66.9
		c27-34.2,49.9-46.7,76.4-44.3c7.4,0.4,13.5-8.2,13.5-18.9v-23.4c0-0.3,0-0.6,0-0.9C341.6,340.6,340.2,340.7,338.7,340.9z"/>
</g>
<g>
	<path d="M908.3,56c-34.1,0-58.7,29.6-87.3,66.9c-26.1,34.2-483.3,39.1-508.9,36.8c-7.1-0.4-13,8.2-13,18.9v23.4
		c0,9.9,5,18.1,11.6,18.9l1.5,0.2c0.3,0,0.6,0.1,0.9,0.1c3-3.7,6.5-6.6,10.5-8.8c4.3-2.3,6.8,4.3,5.9,9.6
		c89.8,2.3,477.3-6.2,504.7-41.6c26.6-35,46.1-54.4,68.7-54.4c25.6,0,42.6,24.9,43.1,73.9c0,20.6-3.3,43-8.8,61.1
		c-3,9.9,0.1,21.5,6.8,25.5l8.1,4.8c6,3.6,12.9-0.4,15.8-9.1c8.7-26,14.2-62.2,14.2-96.3C982,96.5,946.4,56,908.3,56z"/>
	<path d="M967.8,268.8c-2.9-8.7-9.7-12.6-15.8-9.1l-8.1,4.8c-6.7,4-9.9,15.6-6.8,25.5c5.5,18.1,8.8,40.4,8.8,61.1
		c-0.5,49-17.6,73.9-43.1,73.9c-22.1,0-41.3-18.7-67.1-52.3c-1,0.9-2.3,1.1-3.7,0.3c-7.7-4.5-15.5-8-23.4-10.9
		c-1.8-0.6-3.6-1.2-5.4-1.9c-34.6-11.1-70.8-9.3-106.1-9.2c-0.9,0-1.6-0.3-2.3-0.8c-30.7,10.3-64.3,8.5-94.8,0.5
		c-2.2-0.6-3.3-2.7-3.6-5.2c-0.6,0-1.1,0.1-1.7,0.1c-4.4,0.8-8.9,1.1-13.4,1.1c-17.9,1.8-35.7,4.1-53.6,4.2c-2.1,0-3.5-1.6-4.2-3.7
		c-14.5,0.9-29.1,1-43.6,1c-1.5,0-2.7-0.9-3.5-2.2c-0.1,0-0.2,0-0.3-0.1c-0.8-0.3-1.6-0.5-2.4-0.8c-15.7,2.3-32.1-0.7-47.6-0.8
		c-0.8,0-1.5-0.3-2.1-0.7c-0.6,0.4-1.3,0.6-2.3,0.6c-3-0.2-6.1-1.5-9.1-2.2c-4.8-1.2-9.7-2.5-14.5-3.4c-12.6,0.6-25.3,1.3-37.9,1.3
		c-2,0-3.4-1.5-4.2-3.5c-1.1,0.3-2.3,0.6-3.4,0.8c-0.8,0.9-1.7,1.5-2.8,1.5c-1.5,0-3,0-4.5,0.1c-5.1,1-10.3,1.7-15.5,2.1
		c-10.4,0.8-20.6,2.5-30.8,5c0,0,0,0.1,0,0.1v23.4c0,10.8,5.9,19.4,13,18.9c25.6-2.3,482.8,5.6,508.9,39.8
		c28.6,37.3,53.2,66.9,87.3,66.9c38.1,0,73.7-40.4,73.7-129.9C982,331,976.5,294.8,967.8,268.8z"/>
</g>
<g>
	<g>
		<path d="M244.8,362.9c5.2-0.2,10.3-0.4,15.5-0.6c1.7-0.1,2-2.4,0.4-2.9c-8.7-2.7-17,0-23.6,6c-1.3,1.2,0.4,3.1,1.8,2.4
			c35.2-18.2,74.3-22.1,113-26.6c1.9-0.2,1.9-3.2,0-3c-39.3,4.5-78.8,8.5-114.5,27c0.6,0.8,1.2,1.6,1.8,2.4c5.9-5.3,13-7.6,20.7-5.2
			c0.1-1,0.3-2,0.4-2.9c-5.2,0.2-10.3,0.4-15.5,0.6C242.9,359.9,242.9,362.9,244.8,362.9L244.8,362.9z"/>
	</g>
</g>
<g>
	<g>
		<path d="M657,368.6c3.6,1.5,7.2,3,10.8,4.6c1.7,0.8,3.3-1.8,1.5-2.6c-3.8-1.7-7.6-3.3-11.5-4.9C656,365,655.2,367.9,657,368.6
			L657,368.6z"/>
	</g>
</g>
<g>
	<g>
		<path d="M308.2,224.7c9.7,1.7,19.2,0.7,28.4-3.1c1.8-0.7,1-3.6-0.8-2.9c-8.6,3.5-17.5,4.7-26.8,3.1
			C307.1,221.5,306.3,224.4,308.2,224.7L308.2,224.7z"/>
	</g>
</g>
<g>
	<g>
		<path d="M314,215.5c5.9,3.4,12.2,4.9,19,4c1.5-0.2,2.2-2.6,0.4-2.9c-7.6-1.6-15.1-2.3-22.9-2.1c-1.9,0-1.9,3,0,3
			c6.1,0,12.2,0.1,18.3,0.1c1.6,0,2.1-2.7,0.4-2.9c-6.7-1-12.9-0.4-19.3,1.9c-1.3,0.5-1.5,2.5,0,2.9c11.3,2.9,22.7,2.7,33.9-0.6
			c1.8-0.5,1.1-3.4-0.8-2.9c-10.7,3.2-21.5,3.4-32.3,0.6c0,1,0,1.9,0,2.9c5.8-2.1,11.6-2.8,17.7-1.9c0.1-1,0.3-2,0.4-2.9
			c-6.1,0-12.2-0.1-18.3-0.1c0,1,0,2,0,3c7.5-0.2,14.8,0.5,22.1,2c0.1-1,0.3-2,0.4-2.9c-6.3,0.8-12-0.4-17.5-3.6
			C313.9,212,312.4,214.6,314,215.5L314,215.5z"/>
	</g>
</g>
<rect x="236.4" y="245.8" class="st0" width="636.3" height="54.4"/>
<text transform="matrix(0.6622 0 0 1 236.3955 258.6812)" class="st1 st2 st3">							</text>
<text transform="matrix(1.1152 0 0 1 312.0811 314.4722)" class="st1 st4">Dog-Dayz</text>
<g>
	<g>
		<path d="M666.8,355.9c6.1-0.2,12.2-0.9,18.2-1.9c1.9-0.3,1.1-3.2-0.8-2.9c-5.8,1-11.5,1.6-17.4,1.8
			C664.9,353,664.9,356,666.8,355.9L666.8,355.9z"/>
	</g>
</g>
<g>
	<g>
		<path d="M600.7,348.1c16.9,3.3,33.8,6.5,51,7.6c1.9,0.1,1.9-2.9,0-3c-16.9-1.1-33.6-4.2-50.2-7.5
			C599.6,344.8,598.8,347.7,600.7,348.1L600.7,348.1z"/>
	</g>
</g>
<g>
	<g>
		<path d="M668.9,350.1c7,0.6,13.9,1.2,20.9,2c1.9,0.2,1.9-2.8,0-3c-6.9-0.8-13.9-1.4-20.9-2C667,347,667,350,668.9,350.1
			L668.9,350.1z"/>
	</g>
</g>
<g>
	<g>
		<path d="M592.2,353.8c13.1-1.2,26.2-2.3,39.4-3.5c1.9-0.2,2-3,0-3c-11.8,0.1-23.5,0.2-35.3,0.3c0,1,0,2,0,3
			c15.9-1.8,31.6,0,46.8,5.1c-0.1-0.9-0.2-1.8-0.4-2.7c-13.3,6.1-27.1,2.3-37.6-7.4c-0.4,0.9-0.7,1.7-1.1,2.6
			c12.1-0.2,24.2-0.1,36.2,0.3c1.9,0.1,1.9-2.9,0-3c-12.1-0.4-24.2-0.5-36.2-0.3c-1.3,0-2,1.7-1.1,2.6c11.5,10.7,26.6,14.6,41.2,7.9
			c1.3-0.6,0.8-2.4-0.4-2.7c-15.4-5.2-31.4-7-47.6-5.2c-1.9,0.2-2,3,0,3c11.8-0.1,23.5-0.2,35.3-0.3c0-1,0-2,0-3
			c-13.1,1.2-26.2,2.3-39.4,3.5C590.3,351,590.2,354,592.2,353.8L592.2,353.8z"/>
	</g>
</g>
<g>
	<g>
		<path d="M530.3,350.1c1.4-0.9,2.9-1.8,4.3-2.7c1.3-0.8,0.7-2.7-0.8-2.8c-9.4-0.9-18.5,0.2-27.5,3c-1.6,0.5-1.3,2.9,0.4,2.9
			c31.5,0,63.1-0.1,94.6-0.1c1.9,0,1.9-3,0-3c-31.5,0-63.1,0.1-94.6,0.1c0.1,1,0.3,2,0.4,2.9c8.7-2.8,17.6-3.8,26.7-2.9
			c-0.3-0.9-0.5-1.9-0.8-2.8c-1.4,0.9-2.9,1.8-4.3,2.7C527.1,348.6,528.6,351.2,530.3,350.1L530.3,350.1z"/>
	</g>
</g>
<g>
	<g>
		<path d="M356.6,340.6c82.6,7.8,165.5,11,248.5,9.4c1.9,0,1.9-3,0-3c-82.9,1.6-165.9-1.6-248.5-9.4
			C354.7,337.4,354.7,340.4,356.6,340.6L356.6,340.6z"/>
	</g>
</g>
<g>
	<g>
		<path d="M312.3,158.8c-11.1,0.6-21.2-3.1-30.1-9.7c-1.6-1.1-3.1,1.5-1.5,2.6c9.3,6.8,20,10.7,31.6,10.1
			C314.3,161.7,314.3,158.7,312.3,158.8L312.3,158.8z"/>
	</g>
</g>
<g>
	<g>
		<path d="M260.9,136.7c11.2,11.6,25.1,19.5,40.7,23.4c15,3.8,30.5,4.3,45.9,4.5c1.9,0,1.9-3,0-3c-30.9-0.4-61.8-3.5-84.4-27
			C261.6,133.2,259.5,135.3,260.9,136.7L260.9,136.7z"/>
	</g>
</g>
<g>
	<g>
		<path d="M225.8,99c13.3,13.5,27.2,26.5,41.7,38.7c1.5,1.2,3.6-0.9,2.1-2.1c-14.5-12.3-28.4-25.2-41.7-38.7
			C226.5,95.5,224.4,97.6,225.8,99L225.8,99z"/>
	</g>
</g>
<g>
	<g>
		<path d="M307.2,387c-11.7-2.4-23-0.3-33.3,5.5c-1.4,0.8-0.5,3.4,1.2,2.7c14.4-5.8,29.6-7.8,45-5.2c1.9,0.3,2.7-2.6,0.8-2.9
			c-16.5-2.8-32.9-1.3-48.6,4.4c-1.5,0.6-1.4,2.9,0.4,2.9c34.3,0.1,68.3-5.4,100.9-16.1c1.8-0.6,1-3.5-0.8-2.9
			c-32.4,10.6-66,16.1-100.1,16c0.1,1,0.3,2,0.4,2.9c15.2-5.5,31.1-7.1,47-4.4c0.3-1,0.5-1.9,0.8-2.9c-15.9-2.7-31.6-0.8-46.6,5.2
			c0.4,0.9,0.8,1.8,1.2,2.7c9.6-5.4,20.2-7.4,31-5.2C308.2,390.2,309,387.3,307.2,387L307.2,387z"/>
	</g>
</g>
<g>
	<g>
		<path d="M266,407.1c-1.8-8.2,17.2-11.6,22.7-13.2c7.4-2.1,15-3.9,22.6-5.1c15.6-2.6,31.3-3.2,47.1-1.9c1.9,0.2,1.9-2.9,0-3
			c-19.1-1.5-38.2-0.3-56.9,3.8c-9.8,2.1-19.4,4.9-28.7,8.4c-5.5,2.1-11.1,5.1-9.6,11.9C263.5,409.8,266.4,409,266,407.1L266,407.1z
			"/>
	</g>
</g>
<g>
	<g>
		<path d="M250,122.1c4.7,10.4,10.8,19.9,18.9,27.9c1.4,1.4,3.5-0.8,2.1-2.1c-8-7.8-13.9-17.2-18.4-27.3
			C251.8,118.9,249.2,120.4,250,122.1L250,122.1z"/>
	</g>
</g>
<g>
	<g>
		<path d="M612.4,350.6c9.9-0.1,19.9-0.1,29.8-0.2c1.9,0,1.9-3,0-3c-9.9,0.1-19.9,0.1-29.8,0.2C610.5,347.6,610.5,350.6,612.4,350.6
			L612.4,350.6z"/>
	</g>
</g>
<g>
	<g>
		<path d="M645.5,356.1c10.4,0,20.9,0,31.3,0c1.9,0,1.9-3,0-3c-10.4,0-20.9,0-31.3,0C643.6,353.1,643.6,356.1,645.5,356.1
			L645.5,356.1z"/>
	</g>
</g>
<g>
	<g>
		<path d="M625.3,350.5c22.1,0,44.2,0,66.3,0c1.9,0,1.9-3,0-3c-22.1,0-44.2,0-66.3,0C623.4,347.5,623.3,350.5,625.3,350.5
			L625.3,350.5z"/>
	</g>
</g>
<g>
	<g>
		<path d="M687.8,349.3c16.6,0.9,33.2,1.7,49.8,2.6c1.9,0.1,1.9-2.9,0-3c-16.6-0.9-33.2-1.7-49.8-2.6
			C685.9,346.2,685.9,349.2,687.8,349.3L687.8,349.3z"/>
	</g>
</g>
</svg>
